# AST/ASF file generated using VICON BodyLanguage
# -----------------------------------------------
:version 1.10
:name VICON
:units
  mass 1.0
  length 0.45
  angle deg
:documentation
   .ast/.asf automatically generated from VICON data using
   VICON BodyBuilder and BodyLanguage model FoxedUp or BRILLIANT.MOD
:root
   order TX TY TZ RX RY RZ
   axis XYZ
   position 0 0 0  
   orientation 0 0 0 
:bonedata
  begin
     id 1 
     name lhipjoint
     direction 0.707368 -0.647095 0.284426 
     length 2.60678 
     axis 0 0 0  XYZ
  end
  begin
     id 2 
     name lfemur
     direction 0.34202 -0.939693 0  
     length 6.63812  
     axis 0 0 20  XYZ
    dof rx ry rz
    limits (-160.0 20.0)
           (-70.0 70.0)
           (-60.0 70.0)
  end
  begin
     id 3 
     name ltibia
     direction 0.34202 -0.939693 0   
     length 7.51178   
     axis 0 0 20   XYZ
    dof rx
    limits (-10.0 170.0)
  end
  begin
     id 4 
     name lfoot
     direction 0.121251 -0.333133 0.935051   
     length 1.83716   
     axis -90 7.62852e-016 20   XYZ
    dof rx rz
    limits (-45.0 90.0)
           (-70.0 20.0)
  end
  begin
     id 5 
     name ltoes
     direction 1.53611e-011 -4.21962e-011 1   
     length 0.916133   
     axis -90 7.62852e-016 20   XYZ
    dof rx
    limits (-90.0 20.0)
  end
  begin
     id 6 
     name rhipjoint
     direction -0.692419 -0.660507 0.290321   
     length 2.55385  
     axis 0 0 0  XYZ 
  end
  begin
     id 7 
     name rfemur
     direction -0.34202 -0.939693 0   
     length 7.29079   
     axis 0 0 -20   XYZ
    dof rx ry rz
    limits (-160.0 20.0)
           (-70.0 70.0)
           (-70.0 60.0)
  end
  begin
     id 8 
     name rtibia
     direction -0.34202 -0.939693 0   
     length 7.47143   
     axis 0 0 -20   XYZ
    dof rx
    limits (-10.0 170.0)
 end
 begin
     id 9 
     name rfoot
     direction -0.119907 -0.329441 0.936532   
     length 1.79439  
     axis -90 -7.62852e-016 -20   XYZ
    dof rx rz
    limits (-45.0 90.0)
           (-20.0 70.0)
  end
  begin
     id 10 
     name rtoes
     direction -1.53571e-011 -4.21961e-011 1   
     length 0.896039   
     axis -90 -7.62852e-016 -20   XYZ
    dof rx
    limits (-90.0 20.0)
  end
  begin
     id 11 
     name lowerback
     direction 0.0367721 0.992912 -0.113016   
     length 1.73542   
     axis 0 0 0   XYZ
    dof rx ry rz
    limits (-20.0 45.0)
           (-30.0 30.0)
           (-30.0 30.0)
  end
  begin
     id 12 
     name upperback
     direction -0.000314626 0.990678 0.136227   
     length 1.7514   
     axis 0 0 0   XYZ
    dof rx ry rz
    limits (-20.0 45.0)
           (-30.0 30.0)
           (-30.0 30.0)
  end
  begin
     id 13 
     name thorax
     direction -0.0226159 0.981151 0.191917   
     length 1.71471   
     axis 0 0 0   XYZ
    dof rx ry rz
    limits (-20.0 45.0)
           (-30.0 30.0)
           (-30.0 30.0)
  end
  begin
     id 14 
     name lowerneck
     direction 0.0219333 0.998071 0.0580739   
     length 1.65882   
     axis 0 0 0   XYZ
    dof rx ry rz
    limits (-20.0 45.0)
           (-30.0 30.0)
           (-30.0 30.0)
  end
  begin
     id 15 
     name upperneck
     direction 0.0384529 0.980058 -0.194957   
     length 1.6612   
     axis 0 0 0   XYZ
    dof rx ry rz
    limits (-20.0 45.0)
           (-30.0 30.0)
           (-30.0 30.0)
  end
  begin
     id 16
     name head
     direction 0.00592123 0.997421 -0.0715234  
     length 1.68077  
     axis 0 0 0   XYZ
    dof rx ry rz
    limits (-20.0 45.0)
           (-30.0 30.0)
           (-30.0 30.0)
  end
  begin
     id 17 
     name lclavicle
     direction 0.904803 0.417826 0.0821728  
     length 3.42227  
     axis 0 0 0   XYZ
    dof ry rz
    limits (-20.0 10.0)
           (0.0 20.0)
  end
  begin
     id 18 
     name lhumerus
     direction 1 -4.48965e-011 -2.68786e-027   
     length 5.11878   
     axis -180 -30 -90   XYZ
    dof rx ry rz
    limits (-60.0 90.0)
           (-90.0 90.0)
           (-90.0 90.0)
  end
  begin
     id 19
     name lradius
     direction 1 -4.48965e-011 2.61168e-028   
     length 3.59971   
     axis -180 -30 -90   XYZ
    dof rx
    limits (-10.0 170.0)
  end
  begin
     id 20
     name lwrist
     direction 1 -4.48965e-011 1.58672e-027   
     length 1.79985   
     axis -1.65735e-015 90 90   XYZ
    dof ry
    limits (-180.0 0.0)
 end
  begin
     id 21 
     name lhand
     direction 1 -4.48942e-011 3.17344e-027   
     length 0.62877   
     axis -2.02492e-015 90 90   XYZ
    dof rx rz
    limits (-90.0 90.0)
           (-45.0 45.0)
  end
  begin
     id 22 
     name lfingers
     direction 1 -4.49011e-011 6.34687e-027   
     length 0.506931   
     axis -4.04985e-015 90 90   XYZ
    dof rx
    limits (0.0 90.0)
  end
  begin
     id 23
     name lthumb
     direction 0.707107 -6.34982e-011 0.707107   
     length 0.727854   
     axis -90 45 2.85299e-015   XYZ
    dof rx rz
    limits (-45.0 45.0)
           (-45.0 45.0)
  end
  begin
     id 24 
     name rclavicle
     direction -0.945647 0.32488 0.0143075   
     length 3.52737  
     axis 0 0 0   XYZ 
    dof ry rz
    limits (-10.0 20.0)
           (-20.0 0.0)
  end
  begin
     id 25 
     name rhumerus
     direction -1 -4.48962e-011 1.92182e-027  
     length 5.4902   
     axis -180 30 90   XYZ
    dof rx ry rz
    limits (-90.0 60.0)
           (-90.0 90.0)
           (-90.0 90.0)
  end
  begin
     id 26 
     name rradius
     direction -1 -4.48967e-011 -5.97193e-028   
     length 3.20659   
     axis -180 30 90   XYZ
    dof rx
    limits (-10.0 170.0)
  end
  begin
     id 27 
     name rwrist
     direction -1 -4.48964e-011 1.58672e-027   
     length 1.6033   
     axis -1.65735e-015 -90 -90   XYZ
    dof ry
    limits (-180.0 0.0)
  end
  begin
     id 28
     name rhand
     direction -1 -4.49006e-011 3.17344e-027   
     length 0.691885   
     axis -2.02492e-015 -90 -90   XYZ
    dof rx rz
    limits (-90.0 90.0)
           (-45.0 45.0)
  end
  begin
     id 29
     name rfingers
     direction -1 -4.48908e-011 6.34687e-027   
     length 0.557815   
     axis -4.04985e-015 -90 -90   XYZ
    dof rx
    limits (0.0 90.0)
  end
  begin
     id 30
     name rthumb
     direction -0.707107 -6.34999e-011 0.707107   
     length 0.800915   
     axis -90 -45 -2.85299e-015   XYZ
    dof rx rz
    limits (-45.0 45.0)
           (-45.0 45.0)
  end
:hierarchy
  begin
    root lhipjoint rhipjoint lowerback
    lhipjoint lfemur
    lfemur ltibia
    ltibia lfoot
    lfoot ltoes
    rhipjoint rfemur
    rfemur rtibia
    rtibia rfoot
    rfoot rtoes
    lowerback upperback
    upperback thorax
    thorax lowerneck lclavicle rclavicle
    lowerneck upperneck
    upperneck head
    lclavicle lhumerus
    lhumerus lradius
    lradius lwrist
    lwrist lhand lthumb
    lhand lfingers
    rclavicle rhumerus
    rhumerus rradius
    rradius rwrist
    rwrist rhand rthumb
    rhand rfingers
  end

#!OML:ASF I:\Actors\actors\Patient Classification 1\Patient 1\Session 1\Subject1.ASF
:FULLY-SPECIFIED
:DEGREES
135
root -0.151007 18.5317 8.93633 9.64943 6.69932 -8.06242
lowerback -4.84936 2.12297 5.57393
upperback -9.28967 3.00549 2.67171
thorax -6.89616 1.24603 -0.338756
lowerneck 0.308836 -5.70046 -9.06749
upperneck 14.257 -8.71377 10.3096
head 5.04802 -4.22932 4.29747
rclavicle 1.91082e-014 2.83268e-014
rhumerus -64.2535 15.1547 -75.7291
rradius 99.899
rwrist 4.65204
rhand 38.906 -39.6651
rfingers 7.12502
rthumb 61.4822 -51.7892
lclavicle 1.91082e-014 2.83268e-014
lhumerus -68.2937 -6.70229 84.575
lradius 100.165
lwrist 21.5785
lhand 6.48075 -20.5119
lfingers 7.12502
lthumb 31.7813 6.7377
rfemur 0 0 0
rtibia 0
rfoot 0 0
rtoes 0
lfemur -16.5595 -52.021 -0.283949
ltibia 22.3304
lfoot -48.114 47.8524
ltoes -54.2071
136
root -0.150629 18.5293 8.9434 9.40017 6.85244 -8.07716
lowerback -4.84344 2.1756 5.66842
upperback -9.21038 3.06968 2.6387
thorax -6.80439 1.27343 -0.425238
lowerneck 0.736242 -5.66268 -8.7258
upperneck 14.0859 -8.64071 9.96313
head 4.88745 -4.20746 4.14978
rclavicle -4.24902e-015 1.39149e-015
rhumerus -64.3625 16.2298 -73.7617
rradius 104.59
rwrist 2.87697
rhand 42.687 -40.9388
rfingers 7.12502
rthumb 64.5816 -48.7971
lclavicle -4.24902e-015 1.39149e-015
lhumerus -69.1605 -8.10806 83.6475
lradius 105.23
lwrist 23.7372
lhand 10.4176 -21.1622
lfingers 7.12502
lthumb 35.5223 5.27028
rfemur 0 0 0
rtibia 0
rfoot 0 0
rtoes 0
lfemur -16.1688 -51.7955 -0.60021
ltibia 22.3536
lfoot -47.5004 47.7475
ltoes -54.4404
137
root -0.149672 18.5274 8.94904 9.17041 7.11574 -8.03987
lowerback -4.84983 2.17118 5.74012
upperback -9.14999 3.05732 2.59435
thorax -6.72989 1.26335 -0.510291
lowerneck 0.872729 -5.53877 -8.77974
upperneck 14.4139 -8.51437 10.0625
head 4.95769 -4.14284 4.20247
rclavicle 1.14177e-014 1.59525e-014
rhumerus -64.2757 17.474 -71.725
rradius 109.25
rwrist 0.974123
rhand 48.5482 -43.218
rfingers 7.12502
rthumb 68.9738 -41.9726
lclavicle 1.14177e-014 1.59525e-014
lhumerus -69.884 -9.56244 82.6214
lradius 110.271
lwrist 26.0185
lhand 13.9934 -21.2686
lfingers 7.12502
lthumb 38.9033 4.27905
rfemur 0 0 0
rtibia 0
rfoot 0 0
rtoes 0
lfemur -15.9053 -51.4801 -0.870846
ltibia 22.3856
lfoot -46.6738 47.5362
ltoes -54.6852
138
root -0.150897 18.5255 8.95444 8.97353 7.37319 -8.00366
lowerback -4.93098 2.14062 5.78863
upperback -9.06464 3.00341 2.57897
thorax -6.59013 1.2373 -0.548966
lowerneck 0.946791 -5.42304 -8.84562
upperneck 14.6817 -8.39283 10.1774
head 5.02149 -4.0794 4.26008
rclavicle -5.06901e-015 -3.66261e-014
rhumerus -63.9107 18.9629 -69.7332
rradius 113.701
rwrist -0.587945
rhand 51.818 -42.8557
rfingers 7.12502
rthumb 71.0937 -34.7423
lclavicle -5.06901e-015 -3.66261e-014
lhumerus -70.3269 -10.958 81.4441
lradius 115.077
lwrist 27.9972
lhand 17.5054 -21.3943
lfingers 7.12502
lthumb 42.2045 3.12688
rfemur 0 0 0
rtibia 0
rfoot 0 0
rtoes 0
lfemur -15.6908 -51.0712 -1.09036
ltibia 22.3986
lfoot -45.7869 47.2594
ltoes -54.9483
139
root -0.152022 18.5229 8.96062 8.79241 7.61051 -7.98326
lowerback -5.00911 2.11222 5.83607
upperback -9.00607 2.95507 2.57749
thorax -6.48231 1.21367 -0.573086
lowerneck 1.18773 -5.30543 -8.71595
upperneck 14.7166 -8.23709 10.0684
head 4.96599 -4.0078 4.22096
rclavicle 2.42642e-014 4.17448e-015
rhumerus -63.4906 20.6996 -67.9879
rradius 117.958
rwrist -1.45924
rhand 51.9469 -40.2226
rfingers 7.12502
rthumb 71.1708 -31.8068
lclavicle 2.42642e-014 4.17448e-015
lhumerus -70.5982 -12.4023 80.1612
lradius 119.709
lwrist 29.8172
lhand 21.2558 -21.5484
lfingers 7.12502
lthumb 45.7031 1.66872
rfemur 0 0 0
rtibia 0
rfoot 0 0
rtoes 0
lfemur -15.481 -50.8382 -1.26967
ltibia 22.3872
lfoot -45.0814 47.0807
ltoes -55.1712
140
root -0.152356 18.5221 8.96835 8.66901 7.85061 -7.89471
lowerback -5.11406 2.06958 5.81053
upperback -9.00251 2.88861 2.55619
thorax -6.42156 1.18331 -0.577415
lowerneck 1.40832 -5.19536 -8.37549
upperneck 14.9048 -8.08387 9.78935
head 4.94724 -3.93198 4.0921
rclavicle -1.05977e-014 -2.59911e-014
rhumerus -62.8692 22.5327 -66.0767
rradius 122.283
rwrist -3.85314
rhand 54.8443 -41.5945
rfingers 7.12502
rthumb 72.7458 -25.6986
lclavicle -1.05977e-014 -2.59911e-014
lhumerus -70.7737 -13.9433 78.8428
lradius 124.118
lwrist 31.6162
lhand 24.8908 -21.6786
lfingers 7.12502
lthumb 49.0608 0.0236701
rfemur 0 0 0
rtibia 0
rfoot 0 0
rtoes 0
lfemur -15.3473 -50.7812 -1.45574
ltibia 22.3683
lfoot -44.5439 47.0199
ltoes -55.3336
141
root -0.154186 18.5222 8.97673 8.54204 8.03296 -7.77436
lowerback -5.21867 2.04087 5.75529
upperback -9.00376 2.84073 2.52242
thorax -6.36559 1.16337 -0.578567
lowerneck 1.54616 -5.10094 -8.23864
upperneck 15.1638 -7.96439 9.64628
head 4.98126 -3.87351 4.03546
rclavicle 4.70747e-014 3.79679e-014
rhumerus -62.0655 24.4303 -64.2058
rradius 126.369
rwrist -6.689
rhand 58.6035 -42.8243
rfingers 7.12502
rthumb 74.2388 -15.2508
lclavicle 4.70747e-014 3.79679e-014
lhumerus -70.7776 -15.4954 77.5956
lradius 128.158
lwrist 33.3463
lhand 28.3501 -21.8292
lfingers 7.12502
lthumb 52.2177 -1.85375
rfemur 0 0 0
rtibia 0
rfoot 0 0
rtoes 0
lfemur -15.1521 -50.6293 -1.73133
ltibia 22.346
lfoot -44.0195 46.9182
ltoes -55.5122
142
root -0.157167 18.5206 8.98403 8.37083 8.21113 -7.7102
lowerback -5.28444 2.05472 5.80079
upperback -8.98527 2.84895 2.45019
thorax -6.30216 1.16378 -0.676602
lowerneck 1.60402 -5.08135 -8.10865
upperneck 15.4386 -7.95452 9.58337
head 5.04747 -3.86246 3.99678
rclavicle -2.77677e-014 8.24956e-015
rhumerus -61.1429 26.175 -62.5259
rradius 130.119
rwrist -9.6639
rhand 61.4189 -42.9087
rfingers 7.12502
rthumb 74.8481 -5.37808
lclavicle -2.77677e-014 8.24956e-015
lhumerus -70.4795 -17.1487 76.4019
lradius 131.83
lwrist 34.9831
lhand 31.6936 -21.8878
lfingers 7.12502
lthumb 55.2228 -3.91144
rfemur 0 0 0
rtibia 0
rfoot 0 0
rtoes 0
lfemur -14.8943 -50.2338 -2.00137
ltibia 22.3273
lfoot -43.3088 46.6293
ltoes -55.6927
143
root -0.159521 18.519 8.98884 8.20978 8.44073 -7.66059
lowerback -5.34341 2.08583 5.92152
upperback -8.95716 2.87654 2.31841
thorax -6.22542 1.16729 -0.87836
lowerneck 1.56791 -5.13386 -7.67378
upperneck 15.7796 -8.02433 9.33227
head 5.13912 -3.87918 3.84068
rclavicle -2.27267e-014 -3.37934e-014
rhumerus -60.3196 27.8092 -61.3553
rradius 133.613
rwrist -12.7465
rhand 61.9419 -43.0409
rfingers 7.12502
rthumb 74.9074 -3.5872
lclavicle -2.27267e-014 -3.37934e-014
lhumerus -69.9111 -18.9924 75.2493
lradius 135.19
lwrist 36.2829
lhand 34.2625 -21.9505
lfingers 7.12502
lthumb 57.4929 -5.78258
rfemur 0 0 0
rtibia 0
rfoot 0 0
rtoes 0
lfemur -14.7231 -49.7373 -2.19605
ltibia 22.331
lfoot -42.3857 46.2814
ltoes -55.9132
144
root -0.162763 18.5174 8.99116 8.01983 8.66978 -7.61689
lowerback -5.36723 2.10975 6.02676
upperback -8.90139 2.89658 2.20131
thorax -6.14018 1.16924 -1.05708
lowerneck 1.93462 -5.07072 -7.71126
upperneck 15.5811 -7.99075 9.68768
head 5.02592 -3.85858 3.9725
rclavicle 4.06196e-014 2.43232e-014
rhumerus -59.7568 29.5291 -60.8917
rradius 137.037
rwrist -15.9719
rhand 59.2561 -44.069
rfingers 7.12502
rthumb 74.4222 -14.2624
lclavicle 4.06196e-014 2.43232e-014
lhumerus -69.1557 -20.8433 74.282
lradius 138.139
lwrist 37.1286
lhand 36.2682 -22.0073
lfingers 7.12502
lthumb 59.2363 -7.44958
rfemur 0 0 0
rtibia 0
rfoot 0 0
rtoes 0
lfemur -14.5434 -49.2429 -2.39095
ltibia 22.3426
lfoot -41.3768 45.9913
ltoes -56.2067
145
root -0.167867 18.5163 8.99218 7.79668 8.91558 -7.59565
lowerback -5.38032 2.09801 6.08019
upperback -8.80987 2.87099 2.14236
thorax -6.02979 1.15518 -1.14667
lowerneck 2.25835 -5.01641 -7.81201
upperneck 15.3637 -7.96261 10.0393
head 4.91713 -3.84451 4.11181
rclavicle 2.69353e-014 8.89561e-015
rhumerus -58.7129 30.8399 -60.0459
rradius 139.843
rwrist -18.0096
rhand 60.766 -44.6091
rfingers 7.12502
rthumb 74.7498 -9.45392
lclavicle 2.69353e-014 8.89561e-015
lhumerus -68.2668 -22.5018 73.5698
lradius 140.669
lwrist 37.6663
lhand 38.8047 -22.0444
lfingers 7.12502
lthumb 61.3971 -9.81953
rfemur 0 0 0
rtibia 0
rfoot 0 0
rtoes 0
lfemur -14.3261 -48.6898 -2.58016
ltibia 22.3393
lfoot -40.2582 45.6719
ltoes -56.5602
146
root -0.172376 18.5172 8.99093 7.60024 9.16922 -7.49089
lowerback -5.40002 2.05333 6.01115
upperback -8.69402 2.80098 2.08446
thorax -5.89597 1.12751 -1.16734
lowerneck 2.3898 -4.99071 -7.93739
upperneck 15.264 -7.96056 10.3086
head 4.87776 -3.8421 4.22219
rclavicle 6.16854e-015 9.93923e-017
rhumerus -57.5717 31.6624 -59.4094
rradius 142.208
rwrist -19.4558
rhand 62.846 -45.685
rfingers 7.12502
rthumb 74.9685 -2.87894
lclavicle 6.16854e-015 9.93923e-017
lhumerus -67.2921 -24.0029 73.1077
lradius 142.793
lwrist 37.9814
lhand 41.3779 -22.4568
lfingers 7.12502
lthumb 63.5271 -13.0038
rfemur 0 0 0
rtibia 0
rfoot 0 0
rtoes 0
lfemur -14.1296 -48.1395 -2.84875
ltibia 22.3284
lfoot -39.14 45.3063
ltoes -56.9189
